<?xml version="1.0" standalone="no"?>
<!DOCTYPE svg PUBLIC "-//W3C//DTD SVG 20010904//EN"
 "http://www.w3.org/TR/2001/REC-SVG-20010904/DTD/svg10.dtd">
<svg version="1.0" xmlns="http://www.w3.org/2000/svg"
 width="756.000000pt" height="756.000000pt" viewBox="0 0 756.000000 756.000000"
 preserveAspectRatio="xMidYMid meet">
<metadata>
Created by potrace 1.11, written by Peter Selinger 2001-2013
</metadata>
<g transform="translate(0.000000,756.000000) scale(0.100000,-0.100000)"
fill="#000000" stroke="none">
<path d="M2265 7183 c-11 -21 -37 -67 -58 -102 -22 -35 -47 -79 -58 -97 -37
-66 -57 -100 -88 -152 -17 -29 -31 -55 -31 -58 0 -3 -8 -18 -18 -32 -11 -15
-32 -52 -49 -82 -17 -30 -45 -80 -63 -110 -42 -70 -68 -116 -94 -163 -20 -37
-20 -38 0 -56 10 -10 44 -32 74 -48 30 -17 79 -44 108 -62 29 -17 54 -31 56
-31 2 0 34 -18 71 -41 65 -39 88 -53 173 -100 20 -12 42 -25 47 -29 6 -4 35
-21 65 -37 30 -17 96 -54 145 -83 50 -29 104 -60 120 -70 17 -9 54 -31 83 -49
29 -17 55 -31 58 -31 3 0 18 -8 32 -18 15 -11 52 -33 82 -49 30 -17 96 -54
145 -83 50 -29 104 -60 120 -70 17 -9 54 -31 83 -49 29 -17 55 -31 58 -31 3 0
18 -8 32 -18 15 -11 52 -32 82 -49 30 -17 80 -45 110 -63 30 -18 70 -41 88
-51 17 -11 47 -27 65 -38 17 -10 56 -32 85 -50 29 -17 54 -31 56 -31 2 0 34
-18 70 -40 36 -22 68 -40 72 -40 3 0 18 -8 32 -19 15 -10 44 -28 65 -40 20
-11 54 -31 75 -43 20 -11 46 -26 57 -32 27 -16 133 -77 170 -99 17 -9 45 -25
63 -34 18 -9 31 -21 29 -26 -2 -6 -77 -53 -168 -105 -223 -128 -197 -113 -454
-262 -126 -73 -336 -194 -465 -268 -129 -74 -252 -146 -274 -159 -22 -14 -42
-21 -47 -16 -5 5 -10 191 -11 413 l-3 405 -499 3 c-360 1 -503 -1 -512 -9 -12
-9 -14 -134 -14 -718 l0 -706 -103 -58 c-155 -88 -145 -75 -102 -149 21 -35
48 -81 61 -103 12 -22 50 -87 83 -145 34 -58 61 -111 61 -118 0 -8 -8 -26 -18
-40 -11 -15 -33 -52 -49 -82 -17 -30 -62 -111 -102 -178 -39 -68 -71 -128 -71
-133 0 -8 51 -44 105 -74 11 -6 46 -26 78 -44 l57 -33 0 -703 c0 -581 2 -705
14 -714 9 -8 152 -10 512 -9 l499 3 3 408 c2 335 5 407 16 407 7 0 49 -21 92
-46 174 -103 241 -142 284 -166 25 -14 117 -67 205 -118 88 -51 176 -102 195
-113 19 -10 40 -23 45 -27 6 -4 35 -21 65 -37 30 -17 127 -72 215 -123 88 -51
176 -102 195 -113 19 -10 40 -23 45 -27 6 -4 35 -21 65 -37 72 -39 236 -134
327 -189 40 -24 75 -44 79 -44 3 0 18 -8 32 -18 15 -11 52 -33 82 -49 30 -17
99 -56 152 -87 53 -31 103 -56 110 -56 7 0 25 21 39 48 15 26 68 119 119 207
51 88 101 176 112 195 11 19 24 40 28 45 4 6 21 35 37 65 17 30 63 111 102
179 40 68 70 130 67 136 -3 10 -120 82 -246 153 -19 10 -107 61 -195 112 -88
51 -176 102 -195 113 -19 10 -39 23 -45 27 -5 4 -35 21 -65 37 -30 17 -127 72
-215 123 -88 51 -176 102 -195 113 -19 10 -39 23 -45 27 -5 4 -35 21 -65 37
-76 42 -303 173 -315 182 -5 5 -35 22 -65 38 -82 45 -443 253 -455 262 -5 5
-35 22 -65 38 -50 28 -320 183 -415 240 -22 13 -55 31 -73 40 -18 9 -31 21
-29 26 2 6 77 53 168 105 90 52 178 102 194 112 39 22 481 277 520 300 17 9
134 77 260 150 127 73 329 190 450 260 121 70 324 187 450 260 127 73 244 140
260 150 259 149 353 204 367 218 16 16 15 21 -27 91 -25 40 -45 74 -45 76 0 1
-34 60 -75 130 -41 71 -75 135 -75 143 0 8 8 26 18 40 11 15 32 52 49 82 17
30 45 80 63 110 42 70 68 116 94 163 20 37 20 38 0 56 -10 10 -44 32 -74 48
-30 17 -79 44 -108 62 -29 17 -54 31 -56 31 -2 0 -34 18 -71 41 -65 39 -88 53
-172 100 -21 12 -42 25 -48 29 -5 4 -35 21 -65 37 -30 17 -95 54 -145 83 -118
69 -186 108 -262 151 -21 12 -42 25 -48 29 -5 4 -35 21 -65 37 -30 17 -95 54
-145 83 -49 29 -103 60 -120 70 -16 9 -54 31 -83 49 -29 17 -55 31 -58 31 -3
0 -18 8 -32 18 -15 11 -52 32 -82 49 -30 17 -80 45 -110 63 -30 18 -70 41 -87
51 -18 11 -48 27 -65 38 -18 10 -57 32 -86 50 -29 17 -55 31 -58 31 -3 0 -18
8 -32 18 -15 11 -52 32 -82 49 -30 17 -80 45 -110 63 -57 34 -94 55 -157 91
-21 12 -42 25 -48 29 -5 4 -35 21 -65 37 -30 17 -95 54 -145 83 -49 29 -103
60 -120 70 -16 9 -54 31 -83 49 -29 17 -55 31 -58 31 -3 0 -18 8 -32 18 -15
11 -52 33 -82 49 -30 17 -95 54 -145 83 -49 29 -103 60 -120 70 -145 85 -143
84 -170 33z"/>
</g>
</svg>
