<?xml version="1.0" standalone="no"?>
<!DOCTYPE svg PUBLIC "-//W3C//DTD SVG 20010904//EN"
 "http://www.w3.org/TR/2001/REC-SVG-20010904/DTD/svg10.dtd">
<svg version="1.0" xmlns="http://www.w3.org/2000/svg"
 width="756.000000pt" height="756.000000pt" viewBox="0 0 756.000000 756.000000"
 preserveAspectRatio="xMidYMid meet">
<metadata>
Created by potrace 1.11, written by Peter Selinger 2001-2013
</metadata>
<g transform="translate(0.000000,756.000000) scale(0.100000,-0.100000)"
fill="#000000" stroke="none">
<path d="M2249 7128 c-23 -40 -58 -100 -77 -133 -19 -33 -43 -75 -53 -92 -11
-18 -27 -48 -38 -65 -10 -18 -60 -105 -111 -193 -51 -88 -101 -175 -111 -192
-48 -83 -60 -106 -57 -108 2 -2 19 -12 38 -23 19 -11 107 -61 195 -112 182
-105 212 -122 258 -149 17 -10 120 -69 227 -131 107 -62 210 -121 228 -131 45
-27 75 -44 257 -149 88 -51 175 -101 193 -111 17 -11 48 -28 67 -39 19 -11 50
-28 68 -39 17 -10 104 -60 192 -111 88 -51 175 -101 193 -111 17 -11 47 -27
65 -38 17 -10 104 -60 192 -111 192 -111 207 -120 265 -153 25 -15 91 -53 147
-84 59 -33 103 -64 103 -73 0 -9 -44 -40 -103 -73 -56 -31 -122 -69 -147 -84
-58 -33 -73 -42 -265 -153 -88 -51 -175 -101 -192 -111 -18 -11 -48 -27 -65
-38 -18 -10 -105 -60 -193 -111 -209 -121 -219 -127 -257 -149 -156 -90 -195
-111 -205 -111 -10 0 -13 92 -15 413 l-3 412 -497 3 -498 2 0 -703 c0 -548 -3
-707 -12 -719 -11 -13 -48 -35 -198 -120 -19 -11 -36 -21 -38 -23 -3 -2 10
-26 57 -107 136 -237 181 -317 181 -328 0 -11 -45 -91 -181 -327 -47 -82 -60
-106 -57 -108 2 -2 19 -12 38 -23 150 -85 187 -107 198 -120 9 -12 12 -171 12
-719 l0 -703 498 2 497 3 3 413 c2 320 5 412 15 412 6 0 32 -12 57 -26 76 -44
109 -63 145 -84 19 -11 50 -28 68 -39 17 -10 104 -60 192 -111 88 -51 175
-101 193 -111 17 -11 47 -27 65 -38 17 -10 104 -60 192 -111 182 -105 212
-122 258 -149 17 -10 120 -69 227 -131 107 -62 210 -121 228 -131 45 -27 75
-44 257 -149 88 -51 176 -102 195 -113 82 -47 109 -60 122 -55 7 3 45 61 83
128 39 68 81 141 94 164 32 55 43 75 151 261 51 88 101 175 111 192 48 83 60
106 57 108 -2 2 -20 12 -40 24 -21 12 -53 29 -70 40 -18 10 -105 60 -193 111
-88 51 -175 101 -192 111 -18 11 -48 27 -65 38 -18 10 -105 60 -193 111 -182
105 -212 122 -257 149 -18 10 -121 69 -228 131 -107 62 -210 121 -227 131 -46
27 -76 44 -258 149 -88 51 -175 101 -192 111 -18 11 -48 27 -65 38 -18 10
-105 60 -193 111 -192 111 -207 120 -265 153 -25 15 -91 53 -147 84 -59 33
-103 64 -103 73 0 9 44 40 103 73 56 31 122 69 147 84 58 33 73 42 265 153 88
51 175 101 193 111 17 11 47 27 65 38 17 10 104 60 192 111 182 105 212 122
258 149 17 10 120 69 227 131 107 62 210 121 228 131 45 27 75 44 257 149 88
51 175 101 193 111 17 11 48 28 67 39 19 11 50 28 68 39 249 144 358 207 387
223 19 11 36 21 38 23 3 2 -10 26 -57 108 -136 236 -181 316 -181 327 0 11 45
91 181 328 47 81 60 105 57 107 -2 2 -20 12 -40 24 -21 12 -53 29 -70 40 -18
10 -105 60 -193 111 -88 51 -175 101 -192 111 -18 11 -48 27 -65 38 -18 10
-105 60 -193 111 -182 105 -212 122 -257 149 -18 10 -121 69 -228 131 -107 62
-210 121 -227 131 -46 27 -76 44 -258 149 -88 51 -175 101 -192 111 -18 11
-48 27 -65 38 -18 10 -105 60 -193 111 -182 105 -212 122 -257 149 -18 10
-121 69 -228 131 -107 62 -210 121 -227 131 -18 11 -48 27 -65 38 -58 33 -422
243 -456 262 -18 11 -39 19 -47 19 -8 0 -33 -33 -56 -72z"/>
</g>
</svg>
